<svg viewBox="0 0 170 37" fill="none" xmlns="http://www.w3.org/2000/svg">
<path fill-rule="evenodd" clip-rule="evenodd" d="M117.285 10.8818C118.279 10.8818 119.225 11.0997 120.122 11.5361C121.019 11.9483 121.759 12.5553 122.341 13.3555H122.522L123.286 11.3184H125.505V27.0303C125.505 29.0185 125.105 30.692 124.305 32.0498C123.529 33.4075 122.474 34.4137 121.141 35.0684C119.807 35.7472 118.304 36.0869 116.631 36.0869C114.133 36.0869 111.914 35.3106 109.975 33.7588L110.338 31.7588C112.059 32.8741 113.902 33.4316 115.866 33.4316C117.782 33.4316 119.31 32.9098 120.449 31.8672C121.589 30.8489 122.159 29.2612 122.159 27.1035V25.1758H121.94C121.359 26.1698 120.607 26.9334 119.686 27.4668C118.764 27.976 117.71 28.2304 116.521 28.2305C115.188 28.2305 113.963 27.8908 112.848 27.2119C111.757 26.5088 110.884 25.5271 110.229 24.2666C109.599 22.9815 109.283 21.5021 109.283 19.8291C109.283 18.1076 109.635 16.5678 110.338 15.21C111.065 13.8521 112.036 12.7976 113.248 12.0459C114.485 11.27 115.83 10.8818 117.285 10.8818ZM117.722 13.1367C116.776 13.1367 115.915 13.4033 115.14 13.9365C114.388 14.47 113.794 15.2225 113.357 16.1924C112.945 17.1622 112.739 18.2654 112.739 19.502C112.739 21.2719 113.188 22.7385 114.085 23.9023C114.982 25.0418 116.158 25.6123 117.612 25.6123C118.897 25.6123 119.965 25.1152 120.813 24.1211C121.686 23.127 122.122 21.8654 122.122 20.3379V18.7012C122.122 17.0041 121.722 15.6581 120.922 14.6641C120.122 13.646 119.055 13.1368 117.722 13.1367Z" fill="#1B1B1B"/>
<path fill-rule="evenodd" clip-rule="evenodd" d="M16.0059 0C20.3552 0.000146128 23.9655 3.17703 24.666 7.34766C28.8299 8.05399 32 11.6616 32 16.0059C31.9999 20.3566 28.8206 23.9684 24.6475 24.667C23.941 28.8304 20.3334 31.9998 15.9893 32C11.6375 32 8.02487 28.8195 7.32715 24.6455C3.1668 23.9364 0.000214246 20.3309 0 15.9893C0 11.6401 3.17687 8.02869 7.34766 7.32812C8.05607 3.16696 11.6632 0 16.0059 0ZM14.5391 17.8496C12.2105 18.4887 10.499 20.6302 10.499 23.1729C10.4992 26.2197 12.9573 28.6894 15.9893 28.6895C18.5334 28.6893 20.6733 26.9498 21.2959 24.5898C17.9189 23.8625 15.2613 21.2129 14.5391 17.8496ZM24.5918 10.6992C23.8658 14.0778 21.2151 16.7372 17.8506 17.46C18.4912 19.786 20.6308 21.495 23.1719 21.4951C26.219 21.4951 28.6894 19.0377 28.6895 16.0059C28.6895 13.4623 26.9511 11.3224 24.5918 10.6992ZM8.82812 10.499C5.78109 10.499 3.31078 12.9566 3.31055 15.9883C3.31055 18.5304 5.04706 20.6694 7.4043 21.2939C8.13282 17.9164 10.7851 15.2593 14.1504 14.5391C13.5113 12.2108 11.3708 10.4992 8.82812 10.499ZM16.0059 3.31055C13.4638 3.31055 11.325 5.04651 10.7002 7.40332C14.0803 8.12969 16.7395 10.7821 17.4609 14.1484C19.7864 13.5073 21.4951 11.3676 21.4951 8.82715C21.495 5.78033 19.0377 3.31071 16.0059 3.31055Z" fill="#1B1B1B"/>
<path fill-rule="evenodd" clip-rule="evenodd" d="M74.5957 10.8252C79.5847 10.8252 83.289 14.5658 83.2891 19.9219C83.2891 25.278 79.6208 29.0918 74.5957 29.0918C69.5708 29.0916 65.8291 25.2402 65.8291 19.9219C65.8291 14.6036 69.5708 10.8254 74.5957 10.8252ZM74.5957 13.2822C71.4771 13.2824 69.4971 15.8148 69.4971 19.9219C69.4971 24.029 71.4409 26.6336 74.5957 26.6338C77.6032 26.6338 79.6211 24.0668 79.6211 19.9219C79.6211 15.777 77.7145 13.2822 74.5957 13.2822Z" fill="#1B1B1B"/>
<path fill-rule="evenodd" clip-rule="evenodd" d="M169.248 3.30566C168.654 4.18421 168.486 5.09028 168.45 6.63965V25.3594C168.489 26.8623 168.655 27.7546 169.21 28.6182V28.7656H166.455V28.7627H165.063V26.0488H164.916C163.633 28.0645 161.689 29.0917 159.452 29.0918C155.419 29.0918 151.97 25.7552 151.97 20.1797C151.97 14.604 155.564 10.8263 160.076 10.8262C162.13 10.8262 163.818 11.6694 164.918 13.0264H165.065V7.19531C165.065 7.00123 165.063 6.81763 165.06 6.6416C165.025 5.09196 164.862 4.18475 164.298 3.30762V3.16016H169.248V3.30566ZM160.59 13.0986C157.509 13.0986 155.454 15.6657 155.454 19.8105C155.454 23.9554 157.472 26.4501 160.443 26.4502C163.085 26.4502 165.065 24.1031 165.065 21.0957L165.063 21.0938V18.9307C165.063 15.3727 163.377 13.0989 160.59 13.0986Z" fill="#1B1B1B"/>
<path fill-rule="evenodd" clip-rule="evenodd" d="M141.852 10.8818C142.943 10.8818 143.925 11.1126 144.798 11.5732C145.695 12.0097 146.398 12.6039 146.907 13.3555H147.125L147.889 11.3184H150.107V23.6475C150.107 24.8598 150.156 25.7817 150.253 26.4121C150.35 27.0183 150.572 28.0489 150.911 28.4854V28.667H146.762V25.9756H146.58C145.95 26.9697 145.173 27.7213 144.252 28.2305C143.331 28.7396 142.324 28.9941 141.233 28.9941C139.948 28.9941 138.735 28.6426 137.596 27.9395C136.481 27.2121 135.571 26.1819 134.868 24.8486C134.189 23.4908 133.85 21.9143 133.85 20.1201C133.85 18.326 134.201 16.7256 134.904 15.3193C135.632 13.913 136.602 12.8218 137.814 12.0459C139.051 11.27 140.397 10.8818 141.852 10.8818ZM142.324 13.1367C140.845 13.1368 139.645 13.7556 138.724 14.9922C137.802 16.2045 137.342 17.8049 137.342 19.793C137.342 21.7811 137.779 23.3815 138.651 24.5938C139.548 25.7815 140.736 26.3759 142.215 26.376C143.039 26.376 143.791 26.1451 144.47 25.6846C145.173 25.2239 145.731 24.5931 146.144 23.793C146.556 22.9688 146.762 22.0355 146.762 20.9932V18.8838C146.762 17.114 146.35 15.7195 145.525 14.7012C144.701 13.6585 143.634 13.1367 142.324 13.1367Z" fill="#1B1B1B"/>
<path d="M57.0732 3.16016V7.45117H56.8896C56.1193 6.16782 54.4684 5.69141 51.2773 5.69141H45.3359V14.8643H50.251C53.1487 14.8643 54.652 14.4607 55.3125 13.5068H55.4961V18.6777H55.3125C54.652 17.7601 53.1485 17.3574 50.251 17.3574H45.3359V23.1885C45.3359 25.8665 45.5574 27.2596 46.6572 28.5068V28.6543H40.5684V28.5068C41.5221 27.2596 41.7422 25.8664 41.7422 23.1885V8.58984C41.7422 5.94813 41.5222 4.55481 40.5684 3.30762V3.16016H57.0732Z" fill="#1B1B1B"/>
<path d="M64 3.30762C63.3034 4.33367 63.1934 5.39713 63.1934 7.48828V24.3242C63.1934 26.4139 63.3034 27.4773 63.9639 28.5049V28.6523H59.0117V28.5049C59.7083 27.4788 59.8184 26.4154 59.8184 24.3242V7.48828C59.8184 5.39864 59.7083 4.33517 59.0479 3.30762V3.16016H64V3.30762Z" fill="#1B1B1B"/>
<path d="M132.727 3.30762C132.03 4.33359 131.921 5.39731 131.921 7.48828V24.3242C131.921 26.4137 132.03 27.4774 132.69 28.5049V28.6523H127.739V28.5049C128.436 27.4789 128.546 26.4153 128.546 24.3242V7.48828C128.546 5.3987 128.436 4.33514 127.775 3.30762V3.16016H132.727V3.30762Z" fill="#1B1B1B"/>
<path d="M88.5566 11.4121C87.9699 12.5134 88.2267 13.8331 88.8135 15.8506L91.1982 23.7354H91.3457L95.0879 12.6592L94.5742 11.2666H98.0596L101.984 23.9209H102.168L104.662 15.8887C105.286 13.8351 105.506 12.5514 105.029 11.4141V11.2666H109.39V11.4121C108.362 12.6232 107.813 13.9073 107.152 15.9609L103.008 28.6514H100.439L96.4414 15.9248H96.2959L91.9316 28.6514H89.4004L85.3291 15.8506C84.7409 13.9429 84.2282 12.5119 83.2383 11.4121V11.2646H88.5566V11.4121Z" fill="#1B1B1B"/>
<path d="M109.395 11.2666H109.39V11.2646L109.395 11.2666Z" fill="#1B1B1B"/>
</svg>
